<svg version="1.1" xmlns="http://www.w3.org/2000/svg" xmlns:xlink="http://www.w3.org/1999/xlink" width="800" height="800"><defs/><g transform="scale(2,2)"><g id="background-250ff5f6"><rect fill="white" stroke="none" x="0" y="0" width="400" height="400" class="dcg-svg-background"/></g><g id="graphpaper-250ff5f6"><g id="axis-250ff5f6"><g><g><path fill="none" stroke="rgb(0,0,0)" class="dcg-svg-tickmark" paint-order="fill stroke markers" d="" stroke-opacity="0.9" stroke-miterlimit="2" stroke-width="1.5" stroke-dasharray=""/></g></g></g></g><g id="expressions-250ff5f6"><g id="sketch-250ff5f6"><title>Espressione 11</title><path fill="#c74440" stroke="none" paint-order="stroke fill markers" d="" fill-opacity="0.4"/><path fill="#c74440" stroke="none" paint-order="stroke fill markers" d="" fill-opacity="0.4"/><g><path fill="none" stroke="#c74440" class="dcg-svg-curve" paint-order="fill stroke markers" d=" M 15.48393810454019 290.37801190037106 L 15.48393810454019 290.37801190037106 L 15.386387099729625 289.27115721203995 L 15.089015075589407 288.17748118621074 L 14.56689813267876 287.09693697968015 L 14.421119670421737 286.8677610688322" stroke-linecap="round" stroke-linejoin="round" stroke-miterlimit="10" stroke-width="2.5" stroke-dasharray=""/></g><path fill="#c74440" stroke="none" paint-order="stroke fill markers" d="" fill-opacity="0.4"/><g><path fill="none" stroke="#c74440" class="dcg-svg-curve" paint-order="fill stroke markers" d=" M 21.812132785966988 290.37801190037106 L 21.812132785966988 290.37801190037106 L 21.714847742525365 288.8117774357135 L 21.42082423473979 287.25519516088286 L 20.91550074185203 285.69909113714726 L 20.173608267085026 284.1497821370974 L 19.68649591773008 283.3575102372933" stroke-linecap="round" stroke-linejoin="round" stroke-miterlimit="10" stroke-width="2.5" stroke-dasharray=""/></g><path fill="#c74440" stroke="none" paint-order="stroke fill markers" d="" fill-opacity="0.4"/><g><path fill="none" stroke="#c74440" class="dcg-svg-curve" paint-order="fill stroke markers" d=" M 28.14032746739378 290.37801190037106 L 28.14032746739378 290.37801190037106 L 28.042187194604157 288.45014442550064 L 27.746522366821697 286.53127697312203 L 27.246294219602778 284.6207205916059 L 26.523347009192513 282.71114963402266 L 25.549059682559882 280.8033780508647 L 24.951872165038424 279.84725940575436" stroke-linecap="round" stroke-linejoin="round" stroke-miterlimit="10" stroke-width="2.5" stroke-dasharray=""/></g><path fill="#c74440" stroke="none" paint-order="stroke fill markers" d="" fill-opacity="0.4"/><g><path fill="none" stroke="#c74440" class="dcg-svg-curve" paint-order="fill stroke markers" d=" M 34.46852214882058 290.37801190037106 L 34.46852214882058 290.37801190037106 L 34.3714347103338 288.16313499087676 L 34.07831812957832 285.9505931470466 L 33.583661751657175 283.7437392989015 L 32.87326610220797 281.53403741017445 L 31.924571666880126 279.3183000043737 L 30.715021753042713 277.11398970839423 L 30.21724841234677 276.3370085742155" stroke-linecap="round" stroke-linejoin="round" stroke-miterlimit="10" stroke-width="2.5" stroke-dasharray=""/></g><path fill="#c74440" stroke="none" paint-order="stroke fill markers" d="" fill-opacity="0.4"/><g><path fill="none" stroke="#c74440" class="dcg-svg-curve" paint-order="fill stroke markers" d=" M 40.79671683024738 290.37801190037106 L 40.79671683024738 290.37801190037106 L 40.69855034545997 287.8875240745577 L 40.40466001639941 285.4124897831297 L 39.90813427123414 282.93209655869686 L 39.20341547699953 280.46395106269864 L 38.271908897997804 277.99253224917834 L 37.09398605744798 275.52520756394995 L 35.63640138160159 273.0596415314098 L 35.48262465965511 272.8267577426766" stroke-linecap="round" stroke-linejoin="round" stroke-miterlimit="10" stroke-width="2.5" stroke-dasharray=""/></g><path fill="#c74440" stroke="none" paint-order="stroke fill markers" d="" fill-opacity="0.4"/><g><path fill="none" stroke="#c74440" class="dcg-svg-curve" paint-order="fill stroke markers" d=" M 47.12491151167417 290.37801190037106 L 47.12491151167417 290.37801190037106 L 47.02725684679084 287.65657912743666 L 46.7347951772669 284.94914511290665 L 46.239469755418554 282.2260203248063 L 45.53432348553338 279.50342510456676 L 44.605648123225 276.77793902959615 L 43.44439295849557 274.07015372165495 L 42.02091672558179 271.36385640673683 L 40.748000906963455 269.3165069111377" stroke-linecap="round" stroke-linejoin="round" stroke-miterlimit="10" stroke-width="2.5" stroke-dasharray=""/></g></g><g id="sketch-250ff5f6"><title>Espressione 12</title><path fill="#388c46" stroke="none" paint-order="stroke fill markers" d="" fill-opacity="0.4"/><path fill="#388c46" stroke="none" paint-order="stroke fill markers" d="" fill-opacity="0.4"/><g><path fill="none" stroke="#388c46" class="dcg-svg-curve" paint-order="fill stroke markers" d=" M 388.8474243087212 43.57841932472601 L 388.8474243087212 43.57841932472601 L 387.5688890594205 43.447917402894035 L 386.34308648209446 43.06179413666027 L 385.2154795403299 42.43240807554025 L 384.22634939110964 41.57361619760695 L 383.5820480614128 40.7604754748381" stroke-linecap="round" stroke-linejoin="round" stroke-miterlimit="10" stroke-width="2.5" stroke-dasharray=""/></g><path fill="#388c46" stroke="none" paint-order="stroke fill markers" d="" fill-opacity="0.4"/><g><path fill="none" stroke="#388c46" class="dcg-svg-curve" paint-order="fill stroke markers" d=" M 388.8474243087212 49.906614006152836 L 388.8474243087212 49.906614006152836 L 387.0376110405348 49.77654763284605 L 385.2649957189991 49.38902182851058 L 383.55471042204437 48.746805501012176 L 381.9547014613776 47.865052171519466 L 380.4796254742473 46.745704324175335 L 379.15960990939533 45.394575069721725 L 378.31667181410455 44.270726306377014" stroke-linecap="round" stroke-linejoin="round" stroke-miterlimit="10" stroke-width="2.5" stroke-dasharray=""/></g><path fill="#388c46" stroke="none" paint-order="stroke fill markers" d="" fill-opacity="0.4"/><g><path fill="none" stroke="#388c46" class="dcg-svg-curve" paint-order="fill stroke markers" d=" M 388.8474243087212 56.2348086875796 L 388.8474243087212 56.2348086875796 L 386.63218865760314 56.10512221248163 L 384.44721820507306 55.71783460181206 L 382.3223646577072 55.07823709239332 L 380.2700092385954 54.186646403786995 L 378.3368164920907 53.05976463215819 L 376.5212389482289 51.689046818017346 L 374.8700202975678 50.09727132505989 L 373.3794127432452 48.25727009358448 L 373.05129556679617 47.7809771379159" stroke-linecap="round" stroke-linejoin="round" stroke-miterlimit="10" stroke-width="2.5" stroke-dasharray=""/></g><path fill="#388c46" stroke="none" paint-order="stroke fill markers" d="" fill-opacity="0.4"/><g><path fill="none" stroke="#388c46" class="dcg-svg-curve" paint-order="fill stroke markers" d=" M 388.8474243087212 62.563003369006395 L 388.8474243087212 62.563003369006395 L 386.2894424433756 62.43342332005943 L 383.75764999159924 62.0460098540438 L 381.2779682316034 61.40472943046464 L 378.85292413241433 60.506336378548866 L 376.5322016681135 59.36519826139056 L 374.319645235156 57.97895837226335 L 372.242871010883 56.355867176223 L 370.32916835085007 54.507424969406145 L 368.5901859260106 52.42853350570712 L 367.78591931948785 51.29122796945481" stroke-linecap="round" stroke-linejoin="round" stroke-miterlimit="10" stroke-width="2.5" stroke-dasharray=""/></g><path fill="#388c46" stroke="none" paint-order="stroke fill markers" d="" fill-opacity="0.4"/><g><path fill="none" stroke="#388c46" class="dcg-svg-curve" paint-order="fill stroke markers" d=" M 388.8474243087212 68.89119805043319 L 388.8474243087212 68.89119805043319 L 385.99043817596464 68.76194989578573 L 383.15679267693395 68.37526134660709 L 380.3696377600811 67.73429152071336 L 377.6226641238571 66.83325959482593 L 374.9693960468488 65.68526516927051 L 372.43198330907893 64.29989183049807 L 370.00661682949107 62.67020048281458 L 367.71877608872524 60.80296169330299 L 365.59388258763397 58.7077174040254 L 363.6381945187625 56.37209514667876 L 362.52054307217946 54.80147880099369" stroke-linecap="round" stroke-linejoin="round" stroke-miterlimit="10" stroke-width="2.5" stroke-dasharray=""/></g><path fill="#388c46" stroke="none" paint-order="stroke fill markers" d="" fill-opacity="0.4"/><g><path fill="none" stroke="#388c46" class="dcg-svg-curve" paint-order="fill stroke markers" d=" M 388.8474243087212 75.21939273186001 L 388.8474243087212 75.21939273186001 L 385.71645129874975 75.09008105619029 L 382.6068046115174 74.70302682327306 L 379.5396653075588 74.06086641593967 L 376.5359249124392 73.16797384829161 L 373.58186870902773 72.01544487228739 L 370.73428137438555 70.62044757299668 L 368.0130232667066 68.99271129066011 L 365.4077059672966 67.12056661342177 L 362.9424403625241 65.00971909267008 L 360.641450458181 62.668343465903405 L 358.5063768442555 60.07736997723046 L 357.25516682487114 58.311729632532604" stroke-linecap="round" stroke-linejoin="round" stroke-miterlimit="10" stroke-width="2.5" stroke-dasharray=""/></g></g><g id="sketch-250ff5f6"><title>Espressione 13</title><path fill="#2d70b3" stroke="none" paint-order="stroke fill markers" d="" fill-opacity="0.4"/><path fill="#2d70b3" stroke="none" paint-order="stroke fill markers" d="" fill-opacity="0.4"/><g><path fill="none" stroke="#2d70b3" class="dcg-svg-curve" paint-order="fill stroke markers" d=" M 382.5192296272944 290.37801190037106 L 382.5192296272944 290.37801190037106 L 382.616909523431 289.2704319094367 L 382.91381471881 288.1783925786356 L 383.43622993761977 287.0970023904491 L 384.23436891774605 286.04606454544705 L 385.26582655244084 285.1609049014448 L 386.41654839448086 284.5353335577268 L 387.6518761024489 284.16377724013194 L 388.8474243087212 284.04981721894427" stroke-linecap="round" stroke-linejoin="round" stroke-miterlimit="10" stroke-width="2.5" stroke-dasharray=""/></g><path fill="#2d70b3" stroke="none" paint-order="stroke fill markers" d="" fill-opacity="0.4"/><g><path fill="none" stroke="#2d70b3" class="dcg-svg-curve" paint-order="fill stroke markers" d=" M 376.1910349458676 290.37801190037106 L 376.1910349458676 290.37801190037106 L 376.2883581472407 288.8114714905161 L 376.58372971021146 287.24975575698437 L 377.08714413822656 285.7004054595058 L 377.8242577635627 284.1591702862236 L 378.83474219167454 282.6365399132663 L 380.16904795255545 281.16552170906573 L 381.6351384380783 279.97766939522836 L 383.22588489303473 279.03859012049014 L 384.9174821573851 278.34722861783683 L 386.69100992350343 277.9066820312922 L 388.48962100816806 277.7266811995212 L 388.8474243087212 277.7216225375175" stroke-linecap="round" stroke-linejoin="round" stroke-miterlimit="10" stroke-width="2.5" stroke-dasharray=""/></g><path fill="#2d70b3" stroke="none" paint-order="stroke fill markers" d="" fill-opacity="0.4"/><g><path fill="none" stroke="#2d70b3" class="dcg-svg-curve" paint-order="fill stroke markers" d=" M 369.8628402644408 290.37801190037106 L 369.8628402644408 290.37801190037106 L 369.961709286856 288.4430185031624 L 370.2572865623958 286.52817944856304 L 370.7555079072246 284.6250133556465 L 371.48398781602384 282.7017169282891 L 372.4612363198529 280.7911837216764 L 373.71962730976304 278.9078685144906 L 375.31827845299415 277.0597295881204 L 377.0707788369993 275.4875769581769 L 378.9534451307546 274.1754316317747 L 380.9535457891412 273.11240698040206 L 383.03761681572064 272.30425832706425 L 385.2022297037427 271.74666767548536 L 387.41737623838895 271.4473649528712 L 388.8474243087212 271.3934278560907" stroke-linecap="round" stroke-linejoin="round" stroke-miterlimit="10" stroke-width="2.5" stroke-dasharray=""/></g><path fill="#2d70b3" stroke="none" paint-order="stroke fill markers" d="" fill-opacity="0.4"/><g><path fill="none" stroke="#2d70b3" class="dcg-svg-curve" paint-order="fill stroke markers" d=" M 363.53464558301397 290.37801190037106 L 363.53464558301397 290.37801190037106 L 363.63251467924 288.15425400129345 L 363.9253651675603 285.94769193663353 L 364.42133401859195 283.7370119790438 L 365.1268358403802 281.54226351485096 L 366.06362602910656 279.34917230726603 L 367.26473249577543 277.1521213472167 L 368.77351787272414 274.9580557650427 L 370.5868433514441 272.84838127336286 L 372.55976838495644 271.00150469897727 L 374.68537370842205 269.3977094809306 L 376.93259982849986 268.0447693139903 L 379.2709541420825 266.94666567434103 L 381.7090542537669 266.0926162936459 L 384.2215056040484 265.49151670811125 L 386.78213921200125 265.1496278005941 L 388.8474243087212 265.0652331746639" stroke-linecap="round" stroke-linejoin="round" stroke-miterlimit="10" stroke-width="2.5" stroke-dasharray=""/></g><path fill="#2d70b3" stroke="none" paint-order="stroke fill markers" d="" fill-opacity="0.4"/><g><path fill="none" stroke="#2d70b3" class="dcg-svg-curve" paint-order="fill stroke markers" d=" M 357.20645090158723 290.37801190037106 L 357.20645090158723 290.37801190037106 L 357.3039894629604 287.89548973889856 L 357.5960037894141 285.42827315207387 L 358.092334058217 282.9432542153958 L 358.8014801688102 280.45871561019453 L 359.73039289781997 277.9945681157226 L 360.907510822866 275.52835087548954 L 362.3744111803357 273.0479578307702 L 364.1538465440104 270.5947256382472 L 366.22922490677314 268.251822577203 L 368.44983385434585 266.18938850410206 L 370.8167096321138 264.37715563751436 L 373.30032027335255 262.8200955374748 L 375.91736980213847 261.49956165442194 L 378.59836189340604 260.4429502208299 L 381.36436583307966 259.63463807769034 L 384.1924387315484 259.08132984895747 L 387.0591228621652 258.7876150037316 L 388.8474243087212 258.7370384932371" stroke-linecap="round" stroke-linejoin="round" stroke-miterlimit="10" stroke-width="2.5" stroke-dasharray=""/></g><path fill="#2d70b3" stroke="none" paint-order="stroke fill markers" d="" fill-opacity="0.4"/><g><path fill="none" stroke="#2d70b3" class="dcg-svg-curve" paint-order="fill stroke markers" d=" M 350.87825622016044 290.37801190037106 L 350.87825622016044 290.37801190037106 L 350.9773320093204 287.6368744408035 L 351.2740423250716 284.91004229107944 L 351.7668387105916 282.21174610521314 L 352.4701933479416 279.4989129963496 L 353.3930324568062 276.78964099918323 L 354.56845780790235 274.04980988750015 L 355.98505881947136 271.35900404537654 L 357.7145248451731 268.6432403043779 L 359.7826635066305 265.946528014724 L 362.08364671380735 263.4455420138685 L 364.50737047633135 261.2366408829713 L 367.11265271272805 259.245112436823 L 369.8284164537267 257.5156464111212 L 372.62699324441905 256.04791808422186 L 375.5379277845699 254.8179918271064 L 378.54105624175963 253.834387249747 L 381.6155761629926 253.10391770970688 L 384.74019057178015 252.63164311650638 L 387.8932554907515 252.42083488199683 L 388.8474243087212 252.4088438118103" stroke-linecap="round" stroke-linejoin="round" stroke-miterlimit="10" stroke-width="2.5" stroke-dasharray=""/></g></g><g id="sketch-250ff5f6"><title>a</title><path fill="#c74440" stroke="none" class="dcg-svg-point" paint-order="stroke fill markers" d=" M 390.7224243087212 163.81411827183513 A 1.875 1.875 0 1 1 390.7224233712213 163.81224327214764 Z"/></g><g id="sketch-250ff5f6"><title>b</title><path fill="#388c46" stroke="none" class="dcg-svg-point" paint-order="stroke fill markers" d=" M 200.8765838659173 290.37801190037106 A 1.875 1.875 0 1 1 200.87658292841738 290.37613690068355 Z"/></g><g id="sketch-250ff5f6"><title>c</title><path fill="#2d70b3" stroke="none" class="dcg-svg-point" paint-order="stroke fill markers" d=" M 200.8765838659173 163.81411827183513 A 1.875 1.875 0 1 1 200.87658292841738 163.81224327214764 Z"/></g><g id="sketch-250ff5f6"><title>Espressione 21</title><path fill="#2d70b3" stroke="none" paint-order="stroke fill markers" d="" fill-opacity="0.4"/><g><path fill="none" stroke="#2d70b3" class="dcg-svg-curve" paint-order="fill stroke markers" d=" M 9.155743423113393 290.37801190037106 L 9.155743423113393 290.37801190037106 L 388.8474243087212 37.25022464329922" stroke-linecap="round" stroke-linejoin="round" stroke-miterlimit="10" stroke-width="2.5" stroke-dasharray=""/></g></g><g id="sketch-250ff5f6"><title>Espressione 22</title><path fill="#388c46" stroke="none" paint-order="stroke fill markers" d="" fill-opacity="0.4"/><g><path fill="none" stroke="#388c46" class="dcg-svg-curve" paint-order="fill stroke markers" d=" M 9.155743423113393 290.37801190037106 L 9.155743423113393 290.37801190037106 L 388.8474243087212 290.37801190037106" stroke-linecap="round" stroke-linejoin="round" stroke-miterlimit="10" stroke-width="2.5" stroke-dasharray=""/></g></g><g id="sketch-250ff5f6"><title>Espressione 23</title><path fill="#c74440" stroke="none" paint-order="stroke fill markers" d="" fill-opacity="0.4"/><g><path fill="none" stroke="#c74440" class="dcg-svg-curve" paint-order="fill stroke markers" d=" M 388.8474243087212 37.25022464329922 L 388.8474243087212 37.25022464329922 L 388.8474243087212 290.37801190037106" stroke-linecap="round" stroke-linejoin="round" stroke-miterlimit="10" stroke-width="2.5" stroke-dasharray=""/></g></g><g id="sketch-250ff5f6"><title>alpha</title></g><g id="sketch-250ff5f6"><title>beta</title></g><g id="sketch-250ff5f6"><title>gamma</title></g></g><g id="labels-250ff5f6"><g transform="rotate(0,0,0) translate(364,146)"><g class="dcg-svg-label"><text fill="none" stroke="#FFF" font-family="arial, sans-serif" font-size="30.8px" font-style="normal" font-weight="400" text-decoration="normal" x="0" y="27.9776" text-anchor="start" stroke-linecap="round" stroke-linejoin="round" stroke-miterlimit="2" stroke-width="3" stroke-dasharray="">a</text><text fill="rgb(199, 68, 64)" stroke="none" font-family="arial, sans-serif" font-size="30.8px" font-style="normal" font-weight="400" text-decoration="normal" x="0" y="27.9776" text-anchor="start">a</text></g></g><g transform="rotate(0,0,0) translate(190.5,249)"><g class="dcg-svg-label"><text fill="none" stroke="#FFF" font-family="arial, sans-serif" font-size="30.8px" font-style="normal" font-weight="400" text-decoration="normal" x="0" y="27.9776" text-anchor="start" stroke-linecap="round" stroke-linejoin="round" stroke-miterlimit="2" stroke-width="3" stroke-dasharray="">b</text><text fill="rgb(56, 140, 70)" stroke="none" font-family="arial, sans-serif" font-size="30.8px" font-style="normal" font-weight="400" text-decoration="normal" x="0" y="27.9776" text-anchor="start">b</text></g></g><g transform="rotate(0,0,0) translate(180,124)"><g class="dcg-svg-label"><text fill="none" stroke="#FFF" font-family="arial, sans-serif" font-size="30.8px" font-style="normal" font-weight="400" text-decoration="normal" x="0" y="27.9776" text-anchor="start" stroke-linecap="round" stroke-linejoin="round" stroke-miterlimit="2" stroke-width="3" stroke-dasharray="">c</text><text fill="rgb(45, 112, 179)" stroke="none" font-family="arial, sans-serif" font-size="30.8px" font-style="normal" font-weight="400" text-decoration="normal" x="0" y="27.9776" text-anchor="start">c</text></g></g><g transform="rotate(0,0,0) translate(20,301)"><g class="dcg-svg-label"><text fill="none" stroke="#FFF" font-family="&quot;Times New Roman&quot;, Symbola, serif" font-size="35.42px" font-style="italic" font-weight="400" text-decoration="normal" x="2" y="28.924239999999998" text-anchor="start" stroke-linecap="round" stroke-linejoin="round" stroke-miterlimit="2" stroke-width="3" stroke-dasharray="">α</text><text fill="rgb(199, 68, 64)" stroke="none" font-family="&quot;Times New Roman&quot;, Symbola, serif" font-size="35.42px" font-style="italic" font-weight="400" text-decoration="normal" x="2" y="28.924239999999998" text-anchor="start">α</text></g></g><g transform="rotate(0,0,0) translate(349,17.5)"><g class="dcg-svg-label"><text fill="none" stroke="#FFF" font-family="&quot;Times New Roman&quot;, Symbola, serif" font-size="35.42px" font-style="italic" font-weight="400" text-decoration="normal" x="2" y="28.924239999999998" text-anchor="start" stroke-linecap="round" stroke-linejoin="round" stroke-miterlimit="2" stroke-width="3" stroke-dasharray="">β</text><text fill="rgb(56, 140, 70)" stroke="none" font-family="&quot;Times New Roman&quot;, Symbola, serif" font-size="35.42px" font-style="italic" font-weight="400" text-decoration="normal" x="2" y="28.924239999999998" text-anchor="start">β</text></g></g><g transform="rotate(0,0,0) translate(380,305)"><g class="dcg-svg-label"><text fill="none" stroke="#FFF" font-family="&quot;Times New Roman&quot;, Symbola, serif" font-size="35.42px" font-style="italic" font-weight="400" text-decoration="normal" x="2" y="28.924239999999998" text-anchor="start" stroke-linecap="round" stroke-linejoin="round" stroke-miterlimit="2" stroke-width="3" stroke-dasharray="">γ</text><text fill="rgb(45, 112, 179)" stroke="none" font-family="&quot;Times New Roman&quot;, Symbola, serif" font-size="35.42px" font-style="italic" font-weight="400" text-decoration="normal" x="2" y="28.924239999999998" text-anchor="start">γ</text></g></g></g><path fill="#c74440" stroke="none" class="dcg-svg-point" paint-order="stroke fill markers" d=" M 12.905743423113393 290.37801190037106 A 3.75 3.75 0 1 1 12.905741548113548 290.3742619009961 Z"/><path fill="#388c46" stroke="none" class="dcg-svg-point" paint-order="stroke fill markers" d=" M 392.5974243087212 37.25022464329922 A 3.75 3.75 0 1 1 392.59742243372136 37.246474643924216 Z"/><path fill="#2d70b3" stroke="none" class="dcg-svg-point" paint-order="stroke fill markers" d=" M 392.5974243087212 290.37801190037106 A 3.75 3.75 0 1 1 392.59742243372136 290.3742619009961 Z"/><g id="labels-250ff5f6"/></g></svg>